<svg width="31" height="31" viewBox="0 0 31 31" fill="none" xmlns="http://www.w3.org/2000/svg">
<path d="M15.5001 7.68853C11.1773 7.68853 7.68863 11.1772 7.68863 15.5C7.68863 19.8227 11.1773 23.3114 15.5001 23.3114C19.8228 23.3114 23.3115 19.8227 23.3115 15.5C23.3115 11.1772 19.8228 7.68853 15.5001 7.68853ZM15.5001 20.5768C12.7045 20.5768 10.4232 18.2955 10.4232 15.5C10.4232 12.7045 12.7045 10.4231 15.5001 10.4231C18.2956 10.4231 20.5769 12.7045 20.5769 15.5C20.5769 18.2955 18.2956 20.5768 15.5001 20.5768ZM23.6314 5.54811C22.6221 5.54811 21.8071 6.36314 21.8071 7.37242C21.8071 8.3817 22.6221 9.19674 23.6314 9.19674C24.6407 9.19674 25.4557 8.38551 25.4557 7.37242C25.456 7.13276 25.409 6.8954 25.3175 6.67393C25.2259 6.45246 25.0915 6.25123 24.9221 6.08176C24.7526 5.9123 24.5514 5.77793 24.3299 5.68636C24.1084 5.59479 23.8711 5.5478 23.6314 5.54811ZM30.7268 15.5C30.7268 13.3976 30.7459 11.3143 30.6278 9.21578C30.5097 6.77828 29.9537 4.615 28.1713 2.83258C26.385 1.04635 24.2255 0.494102 21.788 0.376035C19.6857 0.257969 17.6024 0.277012 15.5039 0.277012C13.4015 0.277012 11.3182 0.257969 9.21969 0.376035C6.78219 0.494102 4.61891 1.05016 2.83648 2.83258C1.05025 4.61881 0.498008 6.77828 0.379941 9.21578C0.261875 11.3181 0.280918 13.4014 0.280918 15.5C0.280918 17.5985 0.261875 19.6856 0.379941 21.7841C0.498008 24.2216 1.05406 26.3849 2.83648 28.1673C4.62271 29.9536 6.78219 30.5058 9.21969 30.6239C11.322 30.742 13.4053 30.7229 15.5039 30.7229C17.6062 30.7229 19.6895 30.742 21.788 30.6239C24.2255 30.5058 26.3888 29.9498 28.1713 28.1673C29.9575 26.3811 30.5097 24.2216 30.6278 21.7841C30.7497 19.6856 30.7268 17.6023 30.7268 15.5ZM27.3753 24.4806C27.0972 25.1738 26.7621 25.6918 26.2251 26.225C25.688 26.762 25.1739 27.0971 24.4807 27.3752C22.4774 28.1712 17.7205 27.9921 15.5001 27.9921C13.2796 27.9921 8.51891 28.1712 6.51559 27.379C5.82242 27.1009 5.30445 26.7658 4.77125 26.2288C4.23424 25.6918 3.89908 25.1776 3.62105 24.4844C2.82887 22.4773 3.00787 17.7204 3.00787 15.5C3.00787 13.2796 2.82887 8.51881 3.62105 6.51549C3.89908 5.82232 4.23424 5.30436 4.77125 4.77115C5.30826 4.23795 5.82242 3.89898 6.51559 3.62096C8.51891 2.82877 13.2796 3.00777 15.5001 3.00777C17.7205 3.00777 22.4812 2.82877 24.4845 3.62096C25.1777 3.89898 25.6957 4.23414 26.2289 4.77115C26.7659 5.30816 27.101 5.82232 27.3791 6.51549C28.1713 8.51881 27.9922 13.2796 27.9922 15.5C27.9922 17.7204 28.1712 22.4773 27.3753 24.4806Z" fill="black"/>
</svg>

